<svg width="43" height="48" viewBox="0 0 43 48" fill="none" xmlns="http://www.w3.org/2000/svg">
<g clip-path="url(#clip0_60_161)">
<path d="M29.6379 21.5205L29.5374 21.8181C31.5467 22.7106 36.0678 26.1817 36.0678 33.1238C36.0678 39.6693 30.4416 46.3139 21.7009 46.3139C10.75 46.3139 6.93224 39.9668 6.93224 34.2147C6.93224 26.7767 12.1565 21.8181 12.1565 15.0743C12.0561 10.1156 8.53972 5.85111 3.71729 4.85938L3.51636 5.05772C5.2243 6.74367 6.22897 9.02466 6.22897 11.4048C6.22897 18.7437 0 23.9007 0 32.3304C0 40.066 5.5257 47.9999 21.3995 47.9999C35.5654 47.9999 43 41.1569 43 33.9172C43 27.5701 38.479 22.3139 29.6379 21.5205Z" fill="url(#paint0_linear_60_161)"/>
<path d="M21.6005 37.4876L25.6192 0H17.2804L21.2991 37.4876H21.6005Z" fill="#0460A9"/>
</g>
<defs>
<linearGradient id="paint0_linear_60_161" x1="0" y1="26.3453" x2="42.99" y2="26.3453" gradientUnits="userSpaceOnUse">
<stop offset="0.3" stop-color="#E74A21"/>
<stop offset="0.7" stop-color="#EC9A1E"/>
</linearGradient>
<clipPath id="clip0_60_161">
<rect width="43" height="48" fill="white"/>
</clipPath>
</defs>
</svg>
