<svg width="64" height="10" viewBox="0 0 64 10" fill="none" xmlns="http://www.w3.org/2000/svg">
<g clip-path="url(#clip0_60_157)">
<path d="M6.40133 4.47297L6.37534 4.53714C6.80859 4.71929 7.78124 5.44171 7.78124 6.8969C7.78124 8.26721 6.57247 9.64788 4.67266 9.64788C2.30927 9.64788 1.49475 8.32724 1.49475 7.11424C1.49475 5.5597 2.63204 4.52472 2.63204 3.10886C2.62584 2.60811 2.44207 2.12417 2.11076 1.73615C1.77944 1.34812 1.32019 1.07896 0.808046 0.972656L0.769054 1.03683C0.954781 1.20903 1.10215 1.41534 1.20229 1.64336C1.30243 1.87138 1.35328 2.11639 1.35178 2.36367C1.35178 3.89338 0.00219727 4.98011 0.00219727 6.73544C0.00219727 8.35208 1.18498 9.99977 4.60983 9.99977C7.66209 9.99977 9.27163 8.5715 9.27163 7.05214C9.26946 5.74807 8.29248 4.64477 6.40133 4.47297Z" fill="url(#paint0_linear_60_157)"/>
<path d="M19.8105 9.73891L15.7531 4.73994V9.24626L16.5806 9.43462V9.64162H14.6938V9.43462L15.3696 9.24626V4.3363C15.2051 4.18978 15.0071 4.08204 14.7912 4.02167C14.7089 4.00511 14.5984 3.98648 14.5984 3.98648V3.77948H16.1993L19.6653 8.08501V4.17898L18.8378 3.98855V3.78155H20.7246V3.98855L20.0488 4.17898V8.64804C20.0488 9.06203 20.0791 9.66439 20.0856 9.74098L19.8105 9.73891ZM28.2935 6.5553C28.2935 8.62527 26.7772 9.82585 25.12 9.82585C23.4628 9.82585 21.9399 8.60871 21.9399 6.71676C21.9399 4.82481 23.4563 3.59525 25.1048 3.59525C25.5198 3.58216 25.9332 3.6492 26.3205 3.79234C26.7077 3.93549 27.0607 4.15181 27.3584 4.42835C27.6561 4.70489 27.8924 5.03598 28.053 5.40179C28.2137 5.76761 28.2955 6.16065 28.2935 6.55737V6.5553ZM27.2386 6.8658C27.2386 5.34437 26.2854 3.86849 24.99 3.86849C23.6123 3.86849 22.9905 5.14152 22.9905 6.50355C22.9905 7.86559 23.7769 9.55468 25.2564 9.55468C26.6472 9.55468 27.2386 8.20921 27.2386 6.8658ZM29.6041 4.17484L28.9543 3.98441V3.77741H31.4433V3.98441L30.6634 4.17484L32.3813 8.65011L34.0991 4.17484L33.3193 3.98441V3.77741H35.1606V3.98441L34.5107 4.17484L32.3596 9.7534H31.8094L29.6041 4.17484ZM44.313 6.64845H43.9188V4.08584C45.2185 4.08584 45.9919 4.37149 45.9919 5.38577C45.9854 6.13924 45.3095 6.64845 44.313 6.64845ZM55.4498 9.43462L56.3163 9.24626V4.17691L55.4498 3.98648V3.77948H58.1511V3.98648L57.2846 4.17691V9.24626L58.1511 9.43462V9.64162H55.4498V9.43462ZM59.8061 8.03119H59.9773L60.5513 9.29387C60.8926 9.45766 61.2678 9.54676 61.6496 9.55468C62.3948 9.55468 63.075 9.14069 63.075 8.39964C63.075 7.83661 62.6938 7.50128 62.0764 7.19285L61.4655 6.89064C60.7355 6.52839 60.0054 6.01504 60.0054 5.18913C60.0054 4.29076 60.6553 3.59732 62.046 3.59732C62.5347 3.60206 63.0198 3.67815 63.4844 3.82295L63.6296 5.18085H63.4455L62.9147 4.09205C62.6399 3.94542 62.3304 3.86846 62.0157 3.86849C61.3117 3.86849 60.8329 4.28248 60.8329 4.85586C60.8329 5.37542 61.1947 5.70248 61.8143 6.00883L62.5378 6.36901C63.5256 6.85752 63.9935 7.31084 63.9935 8.14918C63.9935 9.18416 62.9775 9.82792 61.7146 9.82792C61.12 9.83656 60.528 9.75195 59.9621 9.57745L59.8061 8.03119ZM34.7642 9.43462L35.4595 9.24626L37.6063 3.77534L38.3233 3.59939L40.5394 9.24419L41.2348 9.43462V9.64162H38.6049V9.43462L39.4953 9.24419L38.8671 7.62134H36.5058L35.882 9.24419L36.7723 9.43255V9.63955H34.7642V9.43462ZM36.6705 7.18871H38.7133L37.6994 4.57228L36.6705 7.18871ZM45.5521 6.77472C45.7688 6.72297 46.984 6.42697 46.984 5.32574C46.984 4.44187 46.2757 3.75671 44.5297 3.75671C43.4465 3.75671 42.3634 3.77948 42.2269 3.78362V3.99062L42.9396 4.18105V9.24419L42.2269 9.43462V9.64162H44.7485V9.43462L43.9209 9.24419V6.95481H44.6336L46.4555 9.64576H48.0693V9.43876L47.2527 9.23177L45.5521 6.77472ZM50.8768 4.08377V9.24626L50.0103 9.43462V9.64162H52.7116V9.43462L51.8451 9.24626V4.08584H53.303L53.7839 5.07528H53.9702L53.8316 3.78569H48.8903L48.7517 5.07528H48.938L49.4146 4.09619L50.8768 4.08377ZM4.65098 7.8097L5.51748 -0.0126953H3.71948L4.58599 7.8097H4.65098Z" fill="#0460A9"/>
</g>
<defs>
<linearGradient id="paint0_linear_60_157" x1="3.10052e-05" y1="5.48518" x2="9.26946" y2="5.48518" gradientUnits="userSpaceOnUse">
<stop offset="0.3" stop-color="#E74A21"/>
<stop offset="0.7" stop-color="#EC9A1E"/>
</linearGradient>
<clipPath id="clip0_60_157">
<rect width="64" height="10" fill="white"/>
</clipPath>
</defs>
</svg>
