<svg width="64" height="65" viewBox="0 0 64 65" fill="none" xmlns="http://www.w3.org/2000/svg">
<path d="M34.7294 51.5507L34.7151 51.5794C33.451 51.5076 32.8621 50.0147 32.8621 48.1916C32.8621 46.1818 34.1549 41.8466 34.672 39.7938C35.1891 37.7266 35.4189 34.3675 33.5372 32.4439C40.6762 29.5729 51.2194 19.8114 52.584 17.6725C53.9342 15.5335 54.2071 12.8204 52.3254 11.471C50.4581 10.1073 47.4129 11.8873 45.6174 14.4713C40.6618 21.6201 37.6597 25.1084 34.2842 28.0369C31.6555 30.3337 30.3628 30.3624 29.0987 30.5347C29.0987 30.5347 33.9681 22.5676 35.778 20.1846C37.9614 17.3279 35.2753 16.2513 32.661 18.0601C32.1295 18.4333 28.0071 21.2756 23.0227 23.8452C14.1457 28.4388 12.0055 30.549 12.0055 33.3052C12.0055 34.5254 12.853 36.0614 14.6341 36.0614C18.1246 36.0614 21.5576 29.8456 23.2525 28.2953C23.9133 27.6924 25.4359 26.3573 26.0248 26.3573C26.2115 26.3573 26.3552 26.4722 26.3552 26.8454C26.3552 28.0369 24.0426 31.4104 20.4659 35.2863C15.2518 40.8848 11 43.1529 11 46.7417C11 49.0672 12.7524 50.3305 14.6628 50.3305C18.6704 50.3305 21.3421 44.9904 22.9509 42.3346C23.5973 41.2724 27.1308 34.6977 27.8634 33.2765C28.6391 33.6928 29.1131 34.5541 28.8545 36.2911C28.3805 39.4349 25.5795 43.239 25.5795 48.5361C25.5795 52.8713 29.5871 54.2207 31.1959 54.2207C32.6754 54.2207 34.6433 53.6465 35.1316 52.1679C35.1891 51.9526 35.1173 51.5794 34.7294 51.5507Z" fill="#D31245"/>
</svg>
