<svg width="64" height="23" viewBox="0 0 64 23" fill="none" xmlns="http://www.w3.org/2000/svg">
<g clip-path="url(#clip0_60_99)">
<path d="M37.4425 13.8498C37.4425 18.5998 34.8221 19.1998 32.2016 19.1998C27.7165 19.1998 26.7591 16.8998 26.7591 13.6498V4.3998H25.0961V3.4998H31.3953V4.3998H29.6315V13.3498C29.6315 16.4998 30.4378 18.0998 32.7559 18.0998C35.074 18.0998 36.2331 16.9498 36.2331 13.6498V4.3998H34.5701V3.4998H39.0551V4.3998H37.5433L37.4425 13.8498ZM41.8268 18.0998V4.3998H40.063V3.4998H47.0173C49.9906 3.4998 51.452 5.1498 51.452 7.0998C51.452 9.1998 49.537 10.3498 47.874 10.6998C51.1496 10.9998 52.0567 13.0998 52.0567 14.6498C52.0567 17.7998 49.3354 18.9998 46.715 18.9998H39.9622V18.0998H41.8268ZM48.6299 7.2998C48.6299 5.8498 47.874 4.3998 46.211 4.3998H44.3969V10.3498H46.0095C47.8236 10.3498 48.6299 8.8998 48.6299 7.2998ZM49.2347 14.6998C49.2347 12.6498 48.3276 11.2498 46.2614 11.2498H44.4976V18.1498H45.9591C48.126 18.0998 49.2347 16.7998 49.2347 14.6998ZM59.0614 4.1998C57.3984 4.1998 56.3402 5.1498 56.3402 6.8498C56.3402 8.3498 58.0032 9.0998 59.6158 9.6498C60.5732 9.9998 61.7827 10.4498 62.6394 11.1998C63.5465 12.0498 64.0504 13.1998 64 14.6498C63.9496 17.3498 62.0347 19.1998 58.6583 19.1998C57.3984 19.1998 55.4331 18.8998 54.274 18.2498L54.1228 14.1998H55.1307C55.2315 16.9498 56.4914 18.3498 58.7591 18.3498C60.5732 18.3498 61.5811 17.1498 61.5811 15.2998C61.5811 13.6998 60.2709 13.0498 58.2551 12.3498C57.6 12.1498 56.2898 11.6498 55.3827 10.7498C54.5764 9.9498 54.1732 8.8998 54.1732 7.8498C54.1732 4.6998 56.441 3.2998 59.263 3.2998C60.3717 3.2998 62.0347 3.6998 63.0425 4.2498L63.1433 7.7998H62.1354C61.9843 5.2998 60.8756 4.1998 59.0614 4.1998Z" fill="#E60000"/>
<path d="M17.1843 6.65L16.7811 7L17.2346 8.45L15.9244 7.75L15.4709 8.1L16.9323 8.9L15.3701 10.15L14.9669 9.6L15.5213 9.15L15.1181 8.65L14.5638 9.1L14.1102 8.5L14.6646 8.05L14.2614 7.5L11.4394 9.85L14.1606 12L14.6646 11.4C15.0173 11.4 15.2693 11.7 15.4205 12L14.9165 12.6L15.2189 12.85C15.874 12.25 16.7811 11.85 17.6882 11.85C19.6031 11.85 21.0646 13.4 21.0646 15.3C21.0646 15.9 20.9134 16.6 20.5606 17.15L21.0646 17.55C21.0646 17.9 20.7118 18.3 20.3591 18.4L19.8551 18C19.2 18.65 18.2929 19 17.3858 19C15.4709 19 14.0094 17.5 14.0094 15.6C14.0094 15 14.211 14.35 14.463 13.8L14.1102 13.55L13.6063 14.2C13.2535 14.15 12.9512 13.9 12.8504 13.55L13.3543 13L11.0866 11.1V14.1H11.8425C11.9433 14.25 11.9937 14.4 11.9937 14.55C11.9937 14.7 11.9433 14.9 11.8425 15.05H11.0866V15.4C12.7496 15.7 14.1606 17.1 14.1606 18.8C14.1606 20.55 12.8 21.95 11.0866 22.25V22.85C10.9354 22.95 10.7339 23 10.5323 23C10.3307 23 10.0787 22.95 9.92756 22.85V22.25C8.21417 22 6.90394 20.55 6.90394 18.8C6.90394 17.1 8.21417 15.7 9.92756 15.45V15.05H9.12126C9.02047 14.9 8.97008 14.75 8.97008 14.55C8.97008 14.35 9.02047 14.2 9.12126 14.05H9.92756V11.05L7.60945 12.95L8.11339 13.5C8.0126 13.85 7.71024 14.1 7.35748 14.15L6.85354 13.5L6.55118 13.8C6.85354 14.35 7.05512 14.95 7.05512 15.6C7.05512 17.5 5.54331 19 3.67874 19C2.77165 19 1.86457 18.65 1.20945 18L0.705512 18.4C0.40315 18.3 0.0503937 17.9 0 17.55L0.503937 17.15C0.201575 16.6 0 15.95 0 15.3C0 13.4 1.46142 11.85 3.37638 11.85C4.28346 11.85 5.19055 12.25 5.84567 12.85L6.14803 12.65L5.64409 12.05C5.74488 11.75 6.04724 11.5 6.4 11.45L6.90394 12.05L9.6252 9.9L6.80315 7.55L6.4 8.1L6.95433 8.55L6.55118 9.1L5.99685 8.65L5.5937 9.15L6.04724 9.5L5.64409 10.05L4.13228 8.8L5.54331 8L5.14016 7.65L3.82992 8.35L4.23307 7L3.82992 6.65L3.32598 8.2L1.76378 6.95L2.16693 6.45L2.72126 6.9L3.1748 6.4L2.62047 5.9L3.02362 5.4L3.57795 5.8L3.9811 5.3L2.77165 4.4C2.87244 4 3.12441 3.7 3.52756 3.45L9.92756 8.65V5.2H9.27244V5.85H8.61732V5.2H7.9622V5.85H7.30709V3.9L8.8189 4.55V4L7.40787 3.4L8.8189 2.85V2.35L7.30709 2.95V0.95H7.9622V1.65H8.61732V0.95H9.27244V1.65H9.92756V0.1C10.1291 0.05 10.3307 0 10.5323 0C10.7339 0 10.9354 0.05 11.0866 0.1V8.65L17.4866 3.45C17.8394 3.7 18.0913 4 18.2425 4.4L17.0331 5.35L17.4362 5.85L17.9906 5.45L18.3937 5.95L17.8394 6.45L18.2425 6.95L18.7968 6.5L19.2 7L17.6378 8.25L17.1843 6.65ZM4.13228 16.05C4.13228 16.6 4.53543 16.95 5.03937 17L4.23307 17.6C3.67874 17.4 3.1748 16.75 3.1748 16.15C3.1748 15.95 3.2252 15.85 3.27559 15.7H3.12441C2.3685 15.7 1.76378 15 1.6126 14.3L2.46929 13.65V13.9C2.46929 14.35 2.92283 14.75 3.37638 14.75C3.88031 14.75 4.33386 14.35 4.33386 13.85C4.33386 13.25 3.88031 12.85 3.27559 12.85C2.16693 12.85 1.05827 13.95 1.05827 15.35C1.05827 15.75 1.15906 16.15 1.31024 16.5L1.81417 16.1C2.16693 16.25 2.4189 16.6 2.51969 17L2.01575 17.4C2.51969 17.8 3.12441 18 3.72913 18C5.03937 18 6.04724 16.95 6.04724 16.05C6.04724 15.5 5.69449 15.05 5.14016 15.05C4.53543 15.15 4.13228 15.55 4.13228 16.05ZM10.9858 18.05C10.9858 18.55 11.389 18.95 11.8929 18.95C12.2457 18.95 12.3969 18.8 12.6488 18.6V19.65C12.3969 19.8 12.1449 19.85 11.8425 19.85C11.2882 19.85 10.8346 19.7 10.5323 19.2C10.2299 19.7 9.72598 19.85 9.17165 19.85C8.91969 19.85 8.61732 19.8 8.36535 19.65V18.6C8.61732 18.85 8.7685 18.95 9.12126 18.95C9.6252 18.95 10.0283 18.55 10.0283 18.05C10.0283 17.55 9.72598 17.15 9.17165 17.15C8.21417 17.15 7.81102 18.05 7.81102 18.9C7.81102 20.1 8.71811 21.15 9.87717 21.35V20.75C10.0787 20.65 10.2803 20.65 10.4315 20.65C10.6331 20.65 10.8346 20.65 11.0362 20.75V21.35C12.1449 21.2 13.1024 20.05 13.1024 18.9C13.1024 18.05 12.7496 17.15 11.7417 17.15C11.3386 17.1 10.9858 17.55 10.9858 18.05ZM16.7307 13.9C16.7307 14.35 17.2346 14.8 17.6882 14.8C18.1417 14.8 18.5953 14.4 18.5953 13.95V13.7L19.4016 14.35C19.2504 15.15 18.5449 15.8 17.7386 15.75C17.789 15.9 17.789 16.05 17.789 16.2C17.789 16.8 17.285 17.45 16.7307 17.65L15.9748 17C16.4787 16.95 16.8819 16.6 16.8819 16.05C16.8819 15.5 16.4283 15.15 15.9244 15.15C15.3701 15.15 15.0173 15.6 15.0173 16.15C15.0173 16.8 15.8236 18.1 17.3858 18.1C17.9906 18.1 18.5953 17.9 19.0488 17.5L18.5449 17.1C18.6457 16.7 18.8976 16.35 19.2504 16.2L19.7543 16.6C19.9559 16.25 20.0567 15.85 20.0567 15.45C20.0567 14.35 19.2 12.95 17.8394 12.95C17.2346 12.95 16.7307 13.3 16.7307 13.9Z" fill="black"/>
</g>
<defs>
<clipPath id="clip0_60_99">
<rect width="64" height="23" fill="white"/>
</clipPath>
</defs>
</svg>
