<svg width="64" height="20" viewBox="0 0 64 20" fill="none" xmlns="http://www.w3.org/2000/svg">
<g clip-path="url(#clip0_60_88)">
<path d="M8.00572 7.13636V9.27273H13.1751C13.0379 10.4545 12.6262 11.3636 11.9857 11.9545C11.2538 12.6818 10.0643 13.5 8.00572 13.5C4.84918 13.5 2.37884 10.9545 2.37884 7.81818C2.37884 4.68182 4.80343 2.13636 8.00572 2.13636C9.69836 2.13636 10.9793 2.81818 11.8942 3.68182L13.4039 2.18182C12.1229 0.954546 10.3846 0 8.00572 0C3.65976 0 0 3.5 0 7.81818C0 12.1364 3.65976 15.6364 8.00572 15.6364C10.3388 15.6364 12.1229 14.8636 13.4954 13.4545C14.9135 12.0455 15.371 10.0455 15.371 8.45455C15.371 7.95455 15.3252 7.5 15.2795 7.13636H8.00572Z" fill="#4285F4"/>
<path d="M21.7755 5.36328C18.985 5.36328 16.6519 7.49964 16.6519 10.4087C16.6519 13.3178 18.9392 15.4542 21.7755 15.4542C24.6119 15.4542 26.8992 13.3633 26.8992 10.4542C26.8992 7.49964 24.6119 5.36328 21.7755 5.36328ZM21.7755 13.4996C20.2201 13.4996 18.8935 12.2269 18.8935 10.4542C18.8935 8.63601 20.2201 7.40874 21.7755 7.40874C23.3309 7.40874 24.6576 8.63601 24.6576 10.4542C24.6576 12.2269 23.3309 13.4996 21.7755 13.4996Z" fill="#EA4335"/>
<path d="M46.7991 6.49964H46.7076C46.2044 5.90874 45.2437 5.36328 44.0086 5.36328C41.4467 5.36328 39.2509 7.5451 39.2509 10.4087C39.2509 13.2269 41.4467 15.4542 44.0086 15.4542C45.2437 15.4542 46.2044 14.9087 46.7076 14.3178H46.7991V15.0451C46.7991 16.9542 45.747 17.9996 44.1001 17.9996C42.7277 17.9996 41.9042 17.0451 41.5382 16.1815L39.6169 16.9996C40.1658 18.3178 41.6755 19.9996 44.1458 19.9996C46.7534 19.9996 48.995 18.4542 48.995 14.7269V5.63601H46.8906V6.49964H46.7991ZM44.2373 13.4996C42.6819 13.4996 41.5382 12.1815 41.5382 10.4542C41.5382 8.68146 42.7277 7.40874 44.2373 7.40874C45.747 7.40874 46.9364 8.72692 46.9364 10.4996C46.9821 12.2269 45.7927 13.4996 44.2373 13.4996Z" fill="#4285F4"/>
<path d="M33.1665 5.36328C30.376 5.36328 28.0429 7.49964 28.0429 10.4087C28.0429 13.3178 30.3302 15.4542 33.1665 15.4542C36.0028 15.4542 38.2902 13.3633 38.2902 10.4542C38.2902 7.49964 36.0028 5.36328 33.1665 5.36328ZM33.1665 13.4996C31.6111 13.4996 30.2845 12.2269 30.2845 10.4542C30.2845 8.63601 31.6111 7.40874 33.1665 7.40874C34.7219 7.40874 36.0486 8.63601 36.0486 10.4542C36.0486 12.2269 34.7219 13.4996 33.1665 13.4996Z" fill="#FBBC05"/>
<path d="M50.6876 0.227539H52.8835V15.5003H50.6876V0.227539Z" fill="#34A853"/>
<path d="M59.654 13.4996C58.5104 13.4996 57.7327 12.9996 57.1837 11.9542L64 9.18146L63.7713 8.59055C63.3596 7.45419 62.0329 5.36328 59.4253 5.36328C56.8177 5.36328 54.6219 7.40874 54.6219 10.4087C54.6219 13.2269 56.772 15.4542 59.654 15.4542C61.9871 15.4542 63.3138 14.0451 63.9085 13.2269L62.1701 12.0906C61.5754 12.9542 60.7977 13.4996 59.654 13.4996ZM59.5168 7.27237C60.4318 7.27237 61.2095 7.72692 61.4382 8.36328L56.8635 10.2724C56.8177 8.18146 58.3731 7.27237 59.5168 7.27237Z" fill="#EA4335"/>
</g>
<defs>
<clipPath id="clip0_60_88">
<rect width="64" height="20" fill="white"/>
</clipPath>
</defs>
</svg>
