<svg width="43" height="55" viewBox="0 0 43 55" fill="none" xmlns="http://www.w3.org/2000/svg">
<g clip-path="url(#clip0_61_235)">
<path d="M43 30.7998L21.1704 36.2265L0 30.7998V54.9998L21.1704 49.5731L43 54.9265V30.7998Z" fill="#C10C1A"/>
<path fill-rule="evenodd" clip-rule="evenodd" d="M34.5026 48.3266V50.1599C34.5026 50.2333 34.4293 50.3066 34.3561 50.3066L30.9864 49.4999C30.9131 49.4999 30.9131 49.4266 30.9131 49.4266V36.5199C30.9131 36.4466 30.9864 36.4466 30.9864 36.4466C31.8654 36.2266 33.8433 35.8599 34.3561 35.7133C34.4293 35.6399 34.5026 35.7133 34.5026 35.7866V37.6199C34.5026 37.6933 34.4293 37.6933 34.4293 37.6933L32.7445 37.9866C32.6712 37.9866 32.6712 38.0599 32.6712 38.0599V41.4333C32.6712 41.5066 32.7445 41.5799 32.7445 41.5799L33.9165 41.5066C33.9898 41.5066 34.063 41.5799 34.063 41.5799V43.2666C34.063 43.3399 33.9898 43.4133 33.9165 43.4133L32.7445 43.4866C32.6712 43.4866 32.6712 43.5599 32.6712 43.5599V47.5933C32.6712 47.6666 32.6712 47.6666 32.7445 47.6666L34.3561 47.9599C34.5026 48.1799 34.5026 48.2533 34.5026 48.3266ZM19.1925 42.6066C19.2658 42.6799 19.2658 42.6066 19.2658 42.5333V38.4266C19.2658 38.3533 19.339 38.2799 19.4123 38.3533L20.3646 38.5733C20.4378 38.5733 20.4378 38.6466 20.4378 38.6466V47.4466C20.4378 47.5199 20.3646 47.5199 20.3646 47.5199L19.4855 47.6666C19.4123 47.6666 19.339 47.6666 19.339 47.5933L18.167 42.7533C18.167 42.7533 18.0937 42.7533 18.0937 42.6799H18.0205C17.9472 42.6799 17.9472 42.7533 17.9472 42.7533V47.8866C17.9472 47.9599 17.874 48.0333 17.874 48.0333L16.8484 48.2533C16.7751 48.3266 16.7019 48.2533 16.7019 48.1799C16.7019 48.1799 16.7019 37.9866 16.7019 37.8399C16.7019 37.7666 16.7751 37.6933 16.8484 37.6933L17.9472 37.9866C18.0205 37.9866 18.0205 38.0599 18.0205 38.0599L18.9728 42.3866L19.046 42.5333C19.1193 42.6066 19.1193 42.6066 19.1925 42.6066ZM22.5622 47.6666C21.7564 47.5199 21.6099 46.9333 21.6099 46.1999V42.8266V39.8933C21.6832 38.9399 21.6832 38.5733 22.5622 38.3533C23.1482 38.2066 23.8808 38.0599 23.8808 38.0599L24.5401 37.9133C25.3458 37.6933 25.7121 38.3533 25.7121 39.2333L25.7854 40.9933C25.7854 41.0666 25.7121 41.1399 25.6389 41.1399H24.3935C24.3203 41.1399 24.3203 41.0666 24.3203 41.0666L24.1738 40.9933V39.7466C24.1738 39.5266 24.0273 39.3799 23.8808 39.4533L23.5145 39.5266C23.5145 39.5266 23.075 39.5999 23.075 39.8933C23.075 39.8933 23.075 43.8533 23.075 45.6133C23.075 45.6866 23.075 45.7599 23.1482 45.8333C23.1482 45.9066 23.1482 45.9799 23.1482 46.0533C23.1482 46.2733 23.2947 46.4199 23.4412 46.4199L24.0273 46.4933C24.1005 46.4933 24.3203 46.4199 24.3203 46.1999V44.5133L24.0273 44.4399C23.954 44.4399 23.954 44.3666 23.954 44.3666V42.8999C23.954 42.8266 24.0273 42.8266 24.0273 42.8266H25.7121C25.7854 42.8266 25.7854 42.8999 25.7854 42.9733V46.7866C25.7854 47.6666 25.3458 48.3999 24.4668 48.1799L22.5622 47.6666ZM26.8842 48.5466V37.3999C26.8842 37.3266 26.9574 37.3266 26.9574 37.3266L28.4225 37.0333C28.4958 37.0333 28.569 37.1066 28.569 37.1066V47.0799C28.569 47.1533 28.6423 47.1533 28.6423 47.1533L29.8876 47.3733C29.9608 47.3733 29.9608 47.4466 29.9608 47.4466L30.0341 49.0599C30.0341 49.1333 29.9608 49.2066 29.8876 49.1333L26.9574 48.5466C26.9574 48.6933 26.8842 48.6199 26.8842 48.5466ZM13.9182 37.1799C13.9182 37.1066 13.9915 37.0333 14.0648 37.1066L15.3833 37.3999C15.4566 37.4733 15.4566 37.4733 15.4566 37.5466C15.4566 38.1333 15.4566 46.8599 15.4566 48.4733C15.4566 48.5466 15.3833 48.5466 15.3833 48.5466L14.0648 48.8399C13.9915 48.8399 13.9182 48.7666 13.9182 48.7666C13.9182 48.7666 13.9182 37.3266 13.9182 37.1799ZM5.49406 35.1999C6.59286 35.4933 7.47191 36.5199 7.39866 37.6199V42.5333C7.39866 43.7066 6.44636 44.7333 5.20104 44.8799H4.54176C4.39525 44.8799 4.39525 44.9533 4.39525 45.0266V50.8199C4.39525 50.8933 4.39525 50.8933 4.322 50.8933L2.71041 51.3333C2.63716 51.4066 2.5639 51.3333 2.5639 51.2599V34.6866C2.5639 34.6133 2.63716 34.6133 2.71041 34.6133L4.68826 35.0533L5.49406 35.1999ZM4.54176 36.8866C4.4685 36.8866 4.39525 36.9599 4.39525 36.9599C4.39525 37.4733 4.39525 39.1599 4.39525 39.8933C4.39525 40.6999 4.39525 42.3866 4.39525 42.8999C4.39525 42.9733 4.4685 42.9733 4.54176 42.9733H4.98128C5.49406 42.9733 5.86033 42.5333 5.86033 42.0199C5.86033 41.7266 5.86033 38.6466 5.86033 37.9866C5.86033 37.3999 5.4208 36.9599 4.90803 36.8133L4.54176 36.8866Z" fill="white"/>
<path fill-rule="evenodd" clip-rule="evenodd" d="M12.7462 41.213C12.7462 41.873 12.6729 42.4597 11.9404 42.753C12.7462 43.1197 12.8194 43.7064 12.8927 44.4397C12.8927 45.5397 12.8194 47.6664 12.8194 47.6664V48.9864C12.8194 49.0597 12.8194 49.0597 12.7462 49.133L11.4276 49.4264C11.3544 49.4264 11.2811 49.353 11.2811 49.353L11.2079 48.5464C11.2079 47.373 11.2079 46.1997 11.2079 45.0264C11.2079 44.733 11.2079 44.513 11.2079 44.2197C11.1346 43.9264 10.9148 43.633 10.6218 43.633C10.3288 43.633 10.1823 43.633 10.109 43.633C10.0358 43.633 9.96254 43.7064 9.96254 43.7064V49.573C9.96254 49.6464 9.96254 49.6464 9.88928 49.7197L8.49746 50.013C8.42421 50.0864 8.35095 50.013 8.35095 49.9397V36.0064C8.35095 35.933 8.42421 35.933 8.49746 35.933L11.5009 36.593C12.3799 36.813 12.7462 37.253 12.7462 38.2064V41.213ZM11.1346 38.793C11.1346 38.4264 10.8416 38.133 10.5486 38.0597L10.109 37.913C10.0358 37.913 9.96254 37.9864 9.96254 38.0597C9.96254 38.4997 9.96254 39.5997 9.96254 40.0397C9.96254 40.553 9.96254 41.653 9.96254 42.0197C9.96254 42.093 10.0358 42.093 10.109 42.093H10.6218C10.9148 42.093 11.0613 41.9464 11.0613 41.7264C11.1346 41.653 11.1346 41.433 11.1346 41.2864C11.2079 40.553 11.2079 39.673 11.1346 38.793ZM40.5826 46.933C40.5826 47.0064 40.5826 48.6197 40.5826 48.693C40.5826 51.0397 40.1431 51.773 37.8722 51.1864C36.2607 50.8197 35.3816 50.5997 35.3816 48.1064V45.173C35.3816 44.953 35.5281 44.953 36.1874 44.953C36.7734 44.953 37.1397 44.953 37.1397 45.173V47.8864C37.1397 48.913 37.3595 48.9864 37.8722 49.0597C38.3118 49.133 38.5315 49.0597 38.6048 48.473C38.6048 48.1064 38.6048 47.0064 38.6048 46.713C38.6048 43.9997 35.4549 42.8264 35.4549 38.9397C35.4549 38.793 35.4549 37.8397 35.4549 37.7664C35.4549 35.5664 36.1142 35.1997 37.8722 34.833C39.7036 34.4664 40.5094 34.393 40.5094 36.7397V40.113C40.5094 40.2597 40.2164 40.2597 39.7036 40.2597C39.1176 40.2597 38.7513 40.2597 38.7513 40.113V37.6197C38.7513 37.033 38.4583 36.7397 38.092 36.813C37.6525 36.8864 37.4327 37.033 37.4327 37.6197C37.3595 37.9864 37.4327 38.7197 37.4327 39.013C37.3595 41.7264 40.5826 42.753 40.5826 46.933Z" fill="white"/>
<path d="M1.97787 23.9798C3.5162 32.2664 13.6252 37.4731 24.4668 35.3464C35.3816 33.3664 42.9268 24.9331 41.3152 16.5731C39.7768 8.28643 29.6678 3.1531 18.8262 5.20643C7.98468 7.25977 0.439535 15.6931 1.97787 23.9798Z" fill="white"/>
<path d="M18.0937 11.3662C18.2402 12.6862 17.6542 13.7862 16.7751 13.7862C15.8228 13.8595 14.9438 12.7595 14.7973 11.4395C14.6507 10.1195 15.2368 9.09288 16.1891 9.01954C17.0681 9.01954 17.8739 10.0462 18.0937 11.3662ZM31.9387 9.97288C32.0119 11.1462 31.4991 11.9529 30.6933 11.9529C29.8875 11.8795 29.0818 10.8529 29.0818 9.67954C29.0085 8.57954 29.5945 7.69954 30.4003 7.77288C31.2061 7.84621 31.8654 8.87288 31.9387 9.97288ZM37.799 13.4195C37.5792 13.3462 37.4327 13.4929 37.5059 13.6395C37.9455 14.5195 37.9455 15.8395 36.5536 15.8395C35.0886 15.8395 33.1107 14.0062 30.4736 14.0062C28.6422 14.0062 26.5911 15.3262 26.3714 18.1862C25.126 16.2795 22.9284 14.9595 20.2913 14.9595C15.4565 14.9595 12.0136 20.8262 7.98465 20.8262C6.22656 20.8262 5.71378 19.2862 6.08005 18.1129C6.1533 17.8929 5.93354 17.7462 5.78703 17.8929C4.39521 18.9929 3.95569 20.8262 3.95569 22.6595C3.95569 27.5729 8.93695 31.7529 15.603 31.7529C21.9029 31.7529 27.3237 27.9395 27.5434 22.3662C28.862 24.1995 30.9864 25.2995 33.184 25.2995C36.7002 25.2995 40.0698 22.8062 40.0698 18.4795C40.0698 16.4995 39.0443 14.2262 37.799 13.4195ZM15.017 0.0728776C12.3799 -0.000455728 10.109 2.41954 9.88925 5.49954C9.88925 5.64621 9.88925 5.79288 9.88925 5.93954C9.88925 6.08621 9.9625 6.15954 10.109 6.23288C10.109 6.23288 10.109 6.23288 10.1823 6.23288C10.2555 6.23288 10.3288 6.15954 10.402 6.01288C10.9881 3.51954 13.2589 1.75954 15.8961 1.90621C16.4821 1.90621 17.0681 1.97954 17.6542 2.27288C17.8007 2.34621 17.9472 2.27288 18.0937 2.12621C18.2402 1.90621 18.1669 1.68621 18.0937 1.53954C17.2146 0.659544 16.1891 0.146211 15.017 0.0728776ZM33.2572 3.81288C33.184 3.66621 33.184 3.51954 33.184 3.37288C32.7444 2.05288 31.8654 0.879544 30.6933 0.366211C29.8875 -0.000455728 29.0818 -0.0737891 28.3492 0.146211C27.5434 0.439544 26.9574 1.02621 26.5179 1.90621C26.4446 2.05288 26.4446 2.27288 26.5911 2.41954C26.7376 2.49288 26.9574 2.49288 27.1039 2.41954C27.3969 2.12621 27.6899 1.97954 28.1295 1.83288C29.9608 1.24621 31.8654 2.12621 32.8177 3.95954C32.8177 4.03288 32.891 4.03288 32.9642 4.03288C33.0375 4.03288 33.0375 4.03288 33.0375 4.03288C33.184 4.03288 33.2572 3.88621 33.2572 3.81288Z" fill="#1C1C1A"/>
</g>
<defs>
<clipPath id="clip0_61_235">
<rect width="43" height="55" fill="white"/>
</clipPath>
</defs>
</svg>
