<svg width="64" height="18" viewBox="0 0 64 18" fill="none" xmlns="http://www.w3.org/2000/svg">
<g clip-path="url(#clip0_60_130)">
<path d="M19.0643 4.17676H21.8358C21.917 4.17676 21.975 4.24599 21.975 4.31522V13.2691C21.975 13.3498 21.9054 13.4075 21.8358 13.4075H19.0643C18.9832 13.4075 18.9252 13.3383 18.9252 13.2691V4.32676C18.9252 4.24599 18.9832 4.17676 19.0643 4.17676Z" fill="#E32851"/>
<path d="M29.8721 4.26907L28.0399 9.11522C28.0283 9.1383 27.9935 9.1383 27.9819 9.11522L26.1381 4.26907C26.1149 4.21137 26.0685 4.17676 25.9989 4.17676H22.9607C22.8563 4.17676 22.7868 4.2806 22.8215 4.37291L26.4744 13.3152C26.4976 13.3729 26.544 13.4075 26.6135 13.4075H29.2807C29.3387 13.4075 29.3967 13.3729 29.4198 13.3152L33.0843 4.38445C33.1191 4.29214 33.0495 4.1883 32.9451 4.1883H29.9881C29.9417 4.17676 29.8837 4.22291 29.8721 4.26907Z" fill="#FF932C"/>
<path d="M58.9904 4.03809C56.0913 4.03809 53.9808 6.06886 53.9808 8.80347C53.9808 11.5381 56.0913 13.5689 58.9904 13.5689C61.8547 13.5689 64 11.515 64 8.80347C64 6.08039 61.8663 4.03809 58.9904 4.03809ZM58.9904 10.9727C57.8539 10.9727 57.1002 10.1073 57.1002 8.80347C57.1002 7.49962 57.8539 6.63424 58.9904 6.63424C60.1152 6.63424 60.8806 7.49962 60.8806 8.80347C60.8806 10.0958 60.1152 10.9727 58.9904 10.9727Z" fill="#0088D9"/>
<path d="M17.9047 4.14185C17.8235 4.11878 17.7192 4.0957 17.6148 4.07262C17.4408 4.04954 15.5506 3.83031 14.507 5.23801C14.4838 5.26108 14.449 5.24954 14.449 5.21493V4.47647V4.32647C14.449 4.2457 14.3794 4.18801 14.3098 4.18801H11.5267C11.4456 4.18801 11.3876 4.25724 11.3876 4.32647V13.2688C11.3876 13.3495 11.4572 13.4072 11.5267 13.4072H14.2982C14.3794 13.4072 14.4374 13.338 14.4374 13.2688V9.9457C14.4374 7.46493 15.597 6.84185 16.7335 6.84185C16.8726 6.84185 17.2553 6.84185 17.8119 6.99185C17.9047 7.01493 17.9975 6.9457 17.9975 6.85339V4.26878C17.9975 4.21108 17.9627 4.15339 17.9047 4.14185Z" fill="#E32851"/>
<path d="M20.4559 0C19.4818 0 18.7048 0.75 18.7048 1.68462C18.7048 2.61923 19.4934 3.36923 20.4559 3.36923C21.43 3.36923 22.2069 2.61923 22.2069 1.68462C22.2069 0.75 21.4184 0 20.4559 0Z" fill="#E32851"/>
<path d="M42.5932 4.17663H39.8217C39.7406 4.17663 39.6826 4.24586 39.6826 4.31509V5.19201C39.6826 5.22663 39.6362 5.23816 39.6246 5.20355C38.6273 3.11509 32.6784 3.51893 32.6784 8.78047C32.6784 13.6959 37.7576 14.5728 39.6246 12.5189C39.6478 12.4959 39.6826 12.5074 39.6826 12.542V13.2574C39.6826 13.3382 39.7522 13.3959 39.8217 13.3959H42.5932C42.6744 13.3959 42.7324 13.3266 42.7324 13.2574V4.32663C42.7324 4.24586 42.6744 4.17663 42.5932 4.17663ZM37.746 10.9612C36.5284 10.9612 35.6703 10.1074 35.6703 8.80355C35.6703 7.4997 36.5284 6.62278 37.746 6.62278C38.9868 6.62278 39.8217 7.51124 39.8217 8.80355C39.8217 10.0959 38.9868 10.9612 37.746 10.9612Z" fill="#FF932C"/>
<path d="M53.0763 4.17729H50.3048C50.2236 4.17729 50.1656 4.24652 50.1656 4.31575V5.19267C50.1656 5.22729 50.1192 5.23883 50.1076 5.20421C49.0988 3.09267 43.5673 3.62344 43.5673 8.51575C43.5673 13.3158 48.6117 13.7196 50.1192 12.3119C50.1424 12.2888 50.1772 12.3119 50.1772 12.335V12.7619C50.1424 14.8042 47.568 15.6811 46.2577 14.135C46.2113 14.0773 46.1301 14.0658 46.0721 14.1119L43.7181 15.6465C43.6485 15.6927 43.6369 15.785 43.6833 15.8542C46.6751 19.9158 53.1807 17.8504 53.227 12.8081V4.32729C53.227 4.24652 53.1575 4.17729 53.0763 4.17729ZM48.4958 10.4773C47.3941 10.4773 46.6171 9.71575 46.6171 8.52729C46.6171 7.33883 47.3825 6.56575 48.4958 6.56575C49.6206 6.56575 50.3743 7.36191 50.3743 8.52729C50.3743 9.69268 49.6206 10.4773 48.4958 10.4773Z" fill="#0088D9"/>
<path d="M10.4135 8.36587H7.63037C7.56079 8.36587 7.49121 8.42357 7.49121 8.50433C7.39844 9.6351 6.44754 10.5351 5.28791 10.5351C3.88476 10.5236 3.31654 9.34664 3.31654 9.34664C3.07302 8.89664 3.06142 8.45818 3.06142 8.36587C3.06142 8.35433 3.07302 8.3428 3.07302 8.3428L3.87317 7.90433L8.90596 5.1351C8.98714 5.08895 9.03352 5.00818 9.03352 4.92741V1.95049C9.03352 1.84664 8.91756 1.77741 8.82479 1.82357L3.10781 4.96203C3.08462 4.97357 3.06142 4.96203 3.06142 4.93895V0.254334C3.06142 0.13895 2.93386 0.069719 2.84109 0.13895L0.104367 1.8928C0.0347889 1.93895 0 2.00818 0 2.08895V8.35433C0.0231926 11.239 2.37724 13.5697 5.27632 13.5697C8.12901 13.5697 10.4483 11.3197 10.5526 8.50433C10.5642 8.4351 10.4947 8.36587 10.4135 8.36587Z" fill="#E32851"/>
</g>
<defs>
<clipPath id="clip0_60_130">
<rect width="64" height="18" fill="white"/>
</clipPath>
</defs>
</svg>
