<svg width="64" height="18" viewBox="0 0 64 18" fill="none" xmlns="http://www.w3.org/2000/svg">
<g clip-path="url(#clip0_60_102)">
<path d="M25.912 0H8.59009V17.9576H25.912V0Z" fill="white"/>
<path d="M34.4615 9.02118L25.8512 0V18.0212L34.4615 9.02118Z" fill="#DB0011"/>
<path d="M17.2409 9.02118L25.8512 0H8.63055L17.2409 9.02118Z" fill="#DB0011"/>
<path d="M0 9.02118L8.63058 18.0212V0L0 9.02118Z" fill="#DB0011"/>
<path d="M17.2409 9.02148L8.63055 18.0215H25.8512L17.2409 9.02148Z" fill="#DB0011"/>
<path d="M42.0183 9.55047H38.8984V12.7693H37.3384V5.23047H38.8984V8.32223H42.0183V5.23047H43.5783V12.7693H42.0183V9.55047Z" fill="black"/>
<path d="M47.3466 12.9176C45.7867 12.9176 44.5103 12.2612 44.4901 10.4612H46.05C46.0703 11.2659 46.516 11.7529 47.3669 11.7529C47.995 11.7529 48.7243 11.4141 48.7243 10.6729C48.7243 10.08 48.2381 9.91057 47.4277 9.65646L46.9009 9.50822C45.7664 9.1694 44.6319 8.70352 44.6319 7.34822C44.6319 5.67528 46.1311 5.10352 47.4885 5.10352C48.8864 5.10352 50.102 5.61175 50.1222 7.28469H48.5622C48.5014 6.60705 48.1165 6.20469 47.3872 6.20469C46.7996 6.20469 46.2324 6.52234 46.2324 7.19999C46.2324 7.75057 46.7186 7.91999 47.7316 8.25881L48.3394 8.4494C49.5752 8.85175 50.3653 9.29646 50.3653 10.567C50.3451 12.2612 48.7648 12.9176 47.3466 12.9176Z" fill="black"/>
<path d="M51.2365 5.25178H53.7486C54.2146 5.2306 54.7008 5.25178 55.1668 5.33648C56.038 5.54825 56.7065 6.14119 56.7065 7.15766C56.7065 8.13178 56.119 8.61884 55.2681 8.85178C56.2406 9.04237 56.9699 9.5506 56.9699 10.673C56.9699 12.3882 55.3491 12.7694 54.0931 12.7694H51.2567L51.2365 5.25178ZM53.7486 8.3859C54.4375 8.3859 55.1466 8.23766 55.1466 7.36943C55.1466 6.5859 54.4982 6.37413 53.8499 6.37413H52.7559V8.3859H53.7486ZM53.8905 11.6471C54.6198 11.6471 55.3289 11.4777 55.3289 10.5459C55.3289 9.61413 54.7211 9.44472 53.9715 9.44472H52.7357V11.6471H53.8905Z" fill="black"/>
<path d="M61.0218 12.9173C58.692 12.9173 57.6588 11.3714 57.6588 9.06321C57.6588 6.75497 58.8135 5.08203 61.1029 5.08203C62.5413 5.08203 63.9392 5.75968 63.9797 7.4538H62.359C62.2779 6.69144 61.7917 6.31027 61.1029 6.31027C59.6847 6.31027 59.2593 7.8985 59.2593 9.10556C59.2593 10.3126 59.6847 11.7103 61.0421 11.7103C61.7512 11.7103 62.2779 11.3079 62.3792 10.5456H64C63.8379 12.282 62.5211 12.9173 61.0218 12.9173Z" fill="black"/>
</g>
<defs>
<clipPath id="clip0_60_102">
<rect width="64" height="18" fill="white"/>
</clipPath>
</defs>
</svg>
