<svg width="64" height="51" viewBox="0 0 64 51" fill="none" xmlns="http://www.w3.org/2000/svg">
<path d="M38.2247 11.4048C41.4814 11.4048 44.1526 25.3526 44.1526 42.519H48.8731C48.8731 24.0207 44.1161 9 38.2247 9C34.8948 9 31.8942 13.5136 29.9548 20.543C27.9788 13.5136 25.0149 9 21.6484 9C15.757 9 11 24.0207 11 42.519H15.7204C15.7204 25.3156 18.3551 11.4048 21.6484 11.4048C24.9051 11.4048 27.5763 24.2796 27.5763 40.1142H32.2967C32.2967 24.2426 34.968 11.4048 38.2247 11.4048Z" fill="#FDBB20"/>
<path d="M51.6907 41.1867H52.02C52.2762 41.1867 52.5323 41.1867 52.5323 40.8537C52.5323 40.5947 52.3127 40.5577 52.0932 40.5577H51.6907V41.1867ZM51.3979 40.3357H52.1298C52.5689 40.3357 52.7884 40.5207 52.7884 40.8907C52.7884 41.2607 52.5689 41.4087 52.2762 41.4087L52.825 42.2596H52.4957L51.9834 41.4087H51.6541V42.2966H51.3613V40.3357H51.3979ZM52.02 42.7405C52.7884 42.7405 53.3739 42.1116 53.3739 41.2977C53.3739 40.4837 52.7884 39.8918 52.02 39.8918C51.2516 39.8918 50.6661 40.5207 50.6661 41.2977C50.6661 42.1116 51.2516 42.7405 52.02 42.7405ZM52.02 39.6328C52.9348 39.6328 53.6667 40.3358 53.6667 41.2977C53.6667 42.2596 52.8982 42.9625 52.02 42.9625C51.1052 42.9625 50.3734 42.2596 50.3734 41.2977C50.3734 40.3727 51.1052 39.6328 52.02 39.6328Z" fill="#FDBB20"/>
</svg>
