<svg width="64" height="20" viewBox="0 0 64 20" fill="none" xmlns="http://www.w3.org/2000/svg">
<g clip-path="url(#clip0_60_112)">
<path d="M33.7294 5.02503C33.7294 5.74575 33.1496 6.32633 32.4299 6.32633C31.7101 6.32633 31.1303 5.74575 31.1303 5.02503C31.1303 4.3043 31.6901 3.72372 32.4299 3.72372C33.1696 3.74374 33.7294 4.32432 33.7294 5.02503ZM28.3711 7.64765C28.3711 7.76777 28.3711 7.96797 28.3711 7.96797C28.3711 7.96797 27.7513 7.16717 26.4317 7.16717C24.2524 7.16717 22.5529 8.82883 22.5529 11.1311C22.5529 13.4134 24.2324 15.0951 26.4317 15.0951C27.7713 15.0951 28.3711 14.2743 28.3711 14.2743V14.6146C28.3711 14.7748 28.4911 14.8949 28.651 14.8949H30.2705V7.36737C30.2705 7.36737 28.791 7.36737 28.651 7.36737C28.4911 7.36737 28.3711 7.50751 28.3711 7.64765ZM28.3711 12.4725C28.0712 12.9129 27.4714 13.2933 26.7516 13.2933C25.472 13.2933 24.4923 12.4925 24.4923 11.1311C24.4923 9.76977 25.472 8.96897 26.7516 8.96897C27.4514 8.96897 28.0912 9.36937 28.3711 9.78979V12.4725ZM31.4701 7.36737H33.3896V14.8949H31.4701V7.36737ZM60.1412 7.16717C58.8216 7.16717 58.2018 7.96797 58.2018 7.96797V3.74374H56.2824V14.8949C56.2824 14.8949 57.7619 14.8949 57.9019 14.8949C58.0618 14.8949 58.1818 14.7548 58.1818 14.6146V14.2743C58.1818 14.2743 58.8016 15.0951 60.1212 15.0951C62.3005 15.0951 64 13.4134 64 11.1311C64 8.84885 62.3005 7.16717 60.1412 7.16717ZM59.8213 13.2733C59.0815 13.2733 58.5017 12.8929 58.2018 12.4525V9.76977C58.5017 9.36937 59.1415 8.94895 59.8213 8.94895C61.1009 8.94895 62.0806 9.74975 62.0806 11.1111C62.0806 12.4725 61.1009 13.2733 59.8213 13.2733ZM55.2827 10.4304V14.9149H53.3633V10.6507C53.3633 9.40941 52.9634 8.90891 51.8838 8.90891C51.304 8.90891 50.7041 9.20921 50.3243 9.64965V14.8949H48.4049V7.36737H49.9244C50.0843 7.36737 50.2043 7.50751 50.2043 7.64765V7.96797C50.7641 7.38739 51.5039 7.16717 52.2437 7.16717C53.0834 7.16717 53.7832 7.40741 54.343 7.88789C55.0228 8.44845 55.2827 9.16917 55.2827 10.4304ZM43.7463 7.16717C42.4267 7.16717 41.8069 7.96797 41.8069 7.96797V3.74374H39.8875V14.8949C39.8875 14.8949 41.3671 14.8949 41.507 14.8949C41.667 14.8949 41.7869 14.7548 41.7869 14.6146V14.2743C41.7869 14.2743 42.4067 15.0951 43.7263 15.0951C45.9056 15.0951 47.6051 13.4134 47.6051 11.1311C47.6251 8.84885 45.9256 7.16717 43.7463 7.16717ZM43.4264 13.2733C42.6866 13.2733 42.1068 12.8929 41.8069 12.4525V9.76977C42.1068 9.36937 42.7466 8.94895 43.4264 8.94895C44.706 8.94895 45.6857 9.74975 45.6857 11.1111C45.6857 12.4725 44.706 13.2733 43.4264 13.2733ZM38.228 7.16717C38.8079 7.16717 39.1078 7.26727 39.1078 7.26727V9.04905C39.1078 9.04905 37.5083 8.50851 36.5086 9.64965V14.9149H34.5892V7.36737C34.5892 7.36737 36.0687 7.36737 36.2087 7.36737C36.3686 7.36737 36.4886 7.50751 36.4886 7.64765V7.96797C36.8485 7.54755 37.6282 7.16717 38.228 7.16717ZM18.2943 14.2142C18.1943 13.974 18.0943 13.7137 17.9944 13.4935C17.8344 13.1331 17.6745 12.7928 17.5345 12.4725L17.5145 12.4525C16.1349 9.44945 14.6554 6.40641 13.0959 3.4034L13.0359 3.28328C12.876 2.98298 12.716 2.66266 12.5561 2.34234C12.3561 1.98198 12.1562 1.6016 11.8363 1.24124C11.1965 0.44044 10.2768 0 9.29708 0C8.29739 0 7.39768 0.44044 6.73788 1.2012C6.43798 1.56156 6.21804 1.94194 6.01811 2.3023C5.85816 2.62262 5.69821 2.94294 5.53826 3.24324L5.47828 3.36336C3.93876 6.36637 2.43923 9.40941 1.05966 12.4124L1.03966 12.4525C0.899706 12.7728 0.739757 13.1131 0.579806 13.4735C0.479838 13.6937 0.379869 13.9339 0.2799 14.1942C0.0199814 14.9349 -0.0599936 15.6356 0.0399752 16.3564C0.259906 17.8579 1.25959 19.1191 2.63916 19.6797C3.159 19.8999 3.69883 20 4.25866 20C4.41861 20 4.61854 19.98 4.77849 19.96C5.43829 19.8799 6.11808 19.6597 6.77787 19.2793C7.59761 18.8188 8.37737 18.1582 9.25709 17.1972C10.1368 18.1582 10.9366 18.8188 11.7363 19.2793C12.3961 19.6597 13.0759 19.8799 13.7357 19.96C13.8956 19.98 14.0956 20 14.2555 20C14.8154 20 15.3752 19.8999 15.875 19.6797C17.2746 19.1191 18.2543 17.8378 18.4742 16.3564C18.6342 15.6557 18.5542 14.955 18.2943 14.2142ZM9.27709 15.2553C8.19743 13.8939 7.49764 12.6126 7.25772 11.5315C7.15775 11.0711 7.13776 10.6707 7.19774 10.3103C7.23773 9.98999 7.35769 9.70971 7.51764 9.46947C7.89752 8.92893 8.53732 8.58859 9.27709 8.58859C10.0169 8.58859 10.6767 8.90891 11.0365 9.46947C11.1965 9.70971 11.3165 9.98999 11.3564 10.3103C11.4164 10.6707 11.3964 11.0911 11.2965 11.5315C11.0565 12.5926 10.3568 13.8739 9.27709 15.2553ZM17.2546 16.1962C17.1146 17.2372 16.4149 18.1381 15.4352 18.5385C14.9553 18.7387 14.4355 18.7988 13.9156 18.7387C13.4158 18.6787 12.916 18.5185 12.3961 18.2182C11.6763 17.8178 10.9566 17.1972 10.1168 16.2763C11.4364 14.6547 12.2362 13.1732 12.5361 11.8519C12.676 11.2312 12.696 10.6707 12.636 10.1502C12.5561 9.64965 12.3761 9.18919 12.0962 8.78879C11.4764 7.88789 10.4367 7.36737 9.27709 7.36737C8.11745 7.36737 7.07778 7.90791 6.45797 8.78879C6.17806 9.18919 5.99811 9.64965 5.91814 10.1502C5.83816 10.6707 5.85816 11.2513 6.01811 11.8519C6.31801 13.1732 7.13776 14.6747 8.43735 16.2963C7.61761 17.2172 6.87784 17.8378 6.15806 18.2382C5.63823 18.5385 5.13838 18.6987 4.63854 18.7588C4.09871 18.8188 3.57887 18.7387 3.11901 18.5586C2.13932 18.1582 1.43954 17.2573 1.29958 16.2162C1.2396 15.7157 1.27959 15.2152 1.47953 14.6547C1.53951 14.4545 1.63948 14.2543 1.73944 14.014C1.8794 13.6937 2.03935 13.3534 2.1993 13.013L2.21929 12.973C3.59886 9.98999 5.0784 6.94695 6.61792 3.98398L6.6779 3.86386C6.83785 3.56356 6.9978 3.24324 7.15775 2.94294C7.3177 2.62262 7.49764 2.32232 7.71758 2.06206C8.13744 1.58158 8.69727 1.32132 9.31708 1.32132C9.93688 1.32132 10.4967 1.58158 10.9166 2.06206C11.1365 2.32232 11.3165 2.62262 11.4764 2.94294C11.6364 3.24324 11.7963 3.56356 11.9563 3.86386L12.0162 3.98398C13.5358 6.96697 15.0153 10.01 16.3949 12.993V13.013C16.5548 13.3333 16.6948 13.6937 16.8547 14.014C16.9547 14.2543 17.0547 14.4545 17.1146 14.6547C17.2746 15.1752 17.3346 15.6757 17.2546 16.1962Z" fill="#FF385C"/>
</g>
<defs>
<clipPath id="clip0_60_112">
<rect width="64" height="20" fill="white"/>
</clipPath>
</defs>
</svg>
