<svg width="43" height="53" viewBox="0 0 43 53" fill="none" xmlns="http://www.w3.org/2000/svg">
<g clip-path="url(#clip0_60_55)">
<path d="M41.653 18.0824C38.1301 20.2647 35.9542 24.0059 35.9542 28.1627C35.9542 32.8392 38.7518 37.1 43 38.8667C42.1711 41.5686 40.9277 44.0627 39.3735 46.349C37.094 49.5706 34.7108 52.8961 31.188 52.8961C27.6651 52.8961 26.6289 50.8176 22.4843 50.8176C18.4434 50.8176 16.9928 53 13.6771 53C10.3614 53 8.08193 49.9863 5.49157 46.2451C2.07229 41.049 0.103614 35.0216 0 28.6824C0 18.3941 6.63133 12.8863 13.2627 12.8863C16.7855 12.8863 19.6867 15.1725 21.8627 15.1725C23.9349 15.1725 27.2506 12.7824 31.188 12.7824C35.3325 12.6784 39.2699 14.6529 41.653 18.0824ZM29.3229 8.41765C31.0843 6.33922 32.0169 3.74118 32.1205 1.03922C32.1205 0.727451 32.1205 0.311765 32.0169 0C29.012 0.311765 26.2145 1.76667 24.2458 4.05294C22.4843 6.02745 21.4482 8.52157 21.3446 11.2235C21.3446 11.5353 21.3446 11.8471 21.4482 12.1588C21.6554 12.1588 21.9663 12.2627 22.1735 12.2627C24.9711 12.0549 27.5614 10.6 29.3229 8.41765Z" fill="black"/>
</g>
<defs>
<clipPath id="clip0_60_55">
<rect width="43" height="53" fill="white"/>
</clipPath>
</defs>
</svg>
