<svg width="64" height="27" viewBox="0 0 64 27" fill="none" xmlns="http://www.w3.org/2000/svg">
<g clip-path="url(#clip0_60_145)">
<path d="M0.26355 14.6124C0.293299 14.5255 0.323049 14.4429 0.365549 14.3603C1.36854 12.2878 5.65674 11.4318 11.8022 12.1922L13.0389 7.543C6.71497 6.72179 2.09953 7.64728 1.33029 10.5889L0.26355 14.6124Z" fill="#0095FF"/>
<path d="M23.3408 9.77246C23.3153 9.84198 23.2898 9.9115 23.26 9.98102C22.2995 12.084 17.9943 12.953 11.8022 12.1883L10.5654 16.8375C16.8894 17.6587 21.5048 16.7332 22.274 13.7916L23.3408 9.77246Z" fill="#0000C9"/>
<path d="M4.30945 4.87086C13.6423 5.55737 23.175 10.2761 22.274 13.7999L23.1112 10.6541C23.379 9.66342 23.5107 9.15071 23.5107 8.73793C23.5107 5.14894 14.3096 0.769153 5.54618 0.22168L4.30945 4.87086Z" fill="#0095FF"/>
<path d="M19.2948 19.5087C9.96191 18.8265 0.429274 14.1078 1.33451 10.584L0.497274 13.7298C0.229527 14.7205 0.0977783 15.2332 0.0977783 15.6459C0.0977783 19.2349 9.29892 23.6147 18.0623 24.1622L19.2948 19.5087Z" fill="#0000C9"/>
<path d="M53.3369 18.4136C52.1554 18.431 51.5264 17.6619 51.5264 16.2976C51.5264 16.2063 51.5307 16.1194 51.5349 16.0325H56.1759C56.2694 15.6719 56.3289 15.2808 56.3289 14.9202C56.3289 13.2561 55.3301 11.9873 53.2902 11.9873C51.2034 11.9873 49.3505 14.0903 49.3505 16.2976C49.3505 18.4136 50.702 19.6997 52.9544 19.6997C53.9532 19.6997 54.9349 19.3565 55.6234 18.822L55.1941 17.7227C54.6587 18.1486 53.9999 18.4006 53.3369 18.4136ZM53.3242 13.1778C54.0127 13.1778 54.3654 13.6341 54.3654 14.6378C54.3654 14.7334 54.3612 14.8333 54.3484 14.9376H51.7007C51.9897 13.8774 52.6059 13.1778 53.3242 13.1778Z" fill="#0000C9"/>
<path d="M34.9644 11.5188C34.9644 9.7938 33.6469 8.53809 31.6494 8.53809H27.7862L24.8707 19.5136H27.3102L28.3854 15.4684H30.5019C32.9244 15.4684 34.9644 13.8694 34.9644 11.5188ZM29.5669 14.1823H28.7297L29.8857 9.82421H30.7654C31.8746 9.82421 32.4994 10.5933 32.4994 11.61C32.4951 13.2394 31.2457 14.1823 29.5669 14.1823Z" fill="#0000C9"/>
<path d="M38.1434 12.1918L38.4154 11.1707C38.5514 10.6363 38.7851 9.72816 39.1038 8.67666C39.4396 7.59475 40.0558 6.92127 40.8846 6.92127C41.2841 6.92127 41.5306 7.10811 41.5306 7.42095C41.5136 7.76421 41.2373 7.96843 41.2373 8.52024C41.2373 9.16331 41.7728 9.66299 42.4656 9.66299C43.324 9.66299 44.0125 8.95909 44.0125 8.09443C44.0125 6.76051 42.8948 5.88281 41.1906 5.88281C38.6916 5.88281 37.0511 7.5122 36.0226 11.3228L31.8492 26.8302H34.2122L37.8161 13.391H40.2726L38.6576 19.5045H41.0206L42.9543 12.1831H38.1434V12.1918Z" fill="#0000C9"/>
<path d="M50.1027 12.1914H43.8467L43.5365 13.3993H46.5667L41.8663 19.5128H48.4919L48.7979 18.3049H45.3895L50.1027 12.1914Z" fill="#0000C9"/>
<path d="M62.4955 12.0654C61.6498 12.0654 60.7488 12.6259 60.0433 13.7861L60.4556 12.1914H58.0926L56.1589 19.5128H58.5218L59.3973 16.2193C59.7501 14.8723 60.6086 13.5558 61.1781 13.5558C61.7901 13.5558 61.5606 14.7333 62.6188 14.7333C63.3838 14.7333 63.847 14.012 63.847 13.3516C63.8428 12.5825 63.2478 12.0654 62.4955 12.0654Z" fill="#0000C9"/>
</g>
<defs>
<clipPath id="clip0_60_145">
<rect width="64" height="27" fill="white"/>
</clipPath>
</defs>
</svg>
