<svg width="64" height="14" viewBox="0 0 64 14" fill="none" xmlns="http://www.w3.org/2000/svg">
<g clip-path="url(#clip0_60_114)">
<mask id="mask0_60_114" style="mask-type:luminance" maskUnits="userSpaceOnUse" x="0" y="1" width="64" height="13">
<path d="M63.6693 1.40039H0.0756531V14.0004H63.6693V1.40039Z" fill="white"/>
</mask>
<g mask="url(#mask0_60_114)">
<path d="M9.15258 12.652H2.42391C1.12936 12.652 0.0756531 11.6147 0.0756531 10.3355V3.71194C0.0756531 2.43763 1.12936 1.40039 2.42391 1.40039H9.15258C10.4521 1.40039 11.5008 2.43763 11.5008 3.71194V10.3355C11.5058 11.6147 10.4521 12.652 9.15258 12.652Z" fill="#FDDB32"/>
<path d="M3.56714 10.4645V9.37289C3.56714 9.28398 3.49688 9.21484 3.40658 9.21484H2.29768C2.20736 9.21484 2.13712 9.28398 2.13712 9.37289V10.4645C2.13712 10.5534 2.20736 10.6225 2.29768 10.6225H3.40658C3.49688 10.6225 3.56714 10.5534 3.56714 10.4645Z" fill="#191E3B"/>
<path d="M9.44396 9.52576V4.14693C9.44396 3.74683 9.11781 3.42578 8.71136 3.42578H3.24715C3.13676 3.42578 3.07154 3.46531 3.0013 3.53445L1.91247 4.61614C1.83219 4.69516 1.88738 4.81372 2.00781 4.81372H6.9502L3.8844 7.83158C3.8292 7.88591 3.80412 7.94025 3.80412 8.02916V8.82439C3.80412 8.91822 3.86936 8.98244 3.96468 8.98244H4.77253C4.86785 8.98244 4.92304 8.95775 4.97322 8.90342L8.03901 5.88552V10.7507C8.03901 10.8692 8.15942 10.9236 8.23973 10.8445L9.33859 9.76778C9.4038 9.69862 9.44396 9.63442 9.44396 9.52576Z" fill="#191E3B"/>
<path d="M26.032 8.1375L28.2699 5.09495C28.3351 5.00109 28.2849 4.90723 28.1746 4.90723H26.9553C26.89 4.90723 26.8047 4.93195 26.7646 5.00109L25.2894 7.12003L23.7791 5.00109C23.7389 4.93686 23.6587 4.90723 23.5884 4.90723H22.2889C22.2236 4.90723 22.1785 4.96156 22.1785 5.01589C22.1785 5.04061 22.1785 5.07022 22.2036 5.09495L24.4465 8.14739L21.9728 11.4962C21.9075 11.59 21.9577 11.6839 22.053 11.6839H23.2824C23.3476 11.6839 23.4329 11.6592 23.473 11.59L25.1841 9.16486L26.9202 11.59C26.9603 11.6592 27.0406 11.6839 27.1108 11.6839H28.4204C28.4857 11.6839 28.5308 11.6296 28.5308 11.5752C28.5308 11.5505 28.5157 11.5209 28.5057 11.4962L26.032 8.1375Z" fill="#191E3B"/>
<path d="M21.0344 2.36328C21.1298 2.36328 21.195 2.42749 21.195 2.52134V3.42523C21.195 3.51906 21.1298 3.58328 21.0344 3.58328H16.6641V6.27021H20.5879C20.6832 6.27021 20.7484 6.33443 20.7484 6.42829V7.32721C20.7484 7.42107 20.6832 7.48526 20.5879 7.48526H16.6641V10.4291H21.0344C21.1298 10.4291 21.195 10.4933 21.195 10.5871V11.5206C21.195 11.6145 21.1298 11.6787 21.0344 11.6787H15.9214C15.5301 11.6787 15.2341 11.3873 15.2341 11.002V3.03996C15.2341 2.6547 15.5301 2.36328 15.9214 2.36328H21.0344Z" fill="#191E3B"/>
<path d="M33.1366 4.69531C31.8121 4.69531 31.1095 5.26824 30.7031 5.8017V5.06575C30.7031 4.97189 30.638 4.9077 30.5427 4.9077H29.4738C29.3785 4.9077 29.3132 4.97683 29.3132 5.06575V13.8378C29.3132 13.9317 29.3785 13.9959 29.4738 13.9959H30.5575C30.6528 13.9959 30.7182 13.9317 30.7182 13.8378V10.815C31.1095 11.3484 31.8121 11.8819 33.1366 11.8819C35.2893 11.8819 36.5436 10.2865 36.5436 8.28613C36.5436 6.28574 35.2893 4.69531 33.1366 4.69531ZM32.8957 10.736C31.5712 10.736 30.6631 9.85682 30.6631 8.30094C30.6631 6.74509 31.5712 5.83625 32.8957 5.83625C34.2205 5.83625 35.1138 6.74015 35.1138 8.30094C35.1138 9.85682 34.2205 10.736 32.8957 10.736Z" fill="#191E3B"/>
<path d="M40.8087 4.69531C38.9271 4.69531 37.4268 6.02889 37.4268 8.23675C37.4268 10.4989 38.7513 11.8868 40.9842 11.8868C42.2688 11.8868 43.3375 11.3287 43.9999 10.5532C44.0399 10.5137 44.055 10.4742 44.055 10.4347C44.055 10.3952 44.0399 10.3557 43.9999 10.3162L43.3778 9.71357C43.3375 9.67404 43.2973 9.65924 43.2574 9.65924C43.2171 9.65924 43.1769 9.68393 43.1369 9.72346C42.6249 10.2717 41.9577 10.736 40.9994 10.736C39.5992 10.736 38.9271 9.88645 38.8215 8.66151H44.0148C44.1101 8.66151 44.1754 8.59235 44.1754 8.50346V8.23675C44.1754 6.21163 42.9312 4.69531 40.8087 4.69531ZM38.8718 7.62426C39.0324 6.51293 39.6243 5.78687 40.7987 5.78687C42.0028 5.78687 42.6401 6.46354 42.7302 7.62426H38.8718Z" fill="#191E3B"/>
<path d="M63.5134 4.90757H62.4446C62.3493 4.90757 62.284 4.97179 62.284 5.06562V5.81147C61.8776 5.27801 61.1752 4.70508 59.8205 4.70508C57.6981 4.70508 56.4386 6.30045 56.4386 8.30084C56.4386 10.3012 57.6981 11.8966 59.8205 11.8966C61.1752 11.8966 61.8776 11.3237 62.284 10.7902V11.5212C62.284 11.6151 62.3493 11.6793 62.4446 11.6793H63.5134C63.6087 11.6793 63.6741 11.6151 63.6741 11.5212V5.06562C63.679 4.97179 63.6087 4.90757 63.5134 4.90757ZM60.0913 10.7507C58.7668 10.7507 57.8736 9.84683 57.8736 8.28601C57.8736 6.73016 58.7668 5.85096 60.0913 5.85096C61.4161 5.85096 62.3242 6.73016 62.3242 8.28601C62.3242 9.84683 61.4161 10.7507 60.0913 10.7507Z" fill="#191E3B"/>
<path d="M52.1293 2.36328H51.0454C50.9501 2.36328 50.885 2.42749 50.885 2.52134V5.81086C50.4783 5.27743 49.7911 4.70447 48.4364 4.70447C46.3139 4.70447 45.0545 6.29985 45.0545 8.30024C45.0545 10.3006 46.3139 11.896 48.4364 11.896C49.7911 11.896 50.4934 11.3231 50.8998 10.7896V11.5206C50.8998 11.6145 50.9652 11.6787 51.0605 11.6787H52.1293C52.2246 11.6787 52.2897 11.6145 52.2897 11.5206V2.52134C52.2897 2.42749 52.2246 2.36328 52.1293 2.36328ZM48.7072 10.7501C47.3827 10.7501 46.4894 9.84623 46.4894 8.28543C46.4894 6.72956 47.3827 5.85039 48.7072 5.85039C50.032 5.85039 50.9401 6.72956 50.9401 8.28543C50.9401 9.84623 50.032 10.7501 48.7072 10.7501Z" fill="#191E3B"/>
<path d="M55.0745 2.36328C55.1698 2.36328 55.2349 2.42749 55.2349 2.52134V3.61292C55.2349 3.70675 55.1698 3.77097 55.0745 3.77097H53.9655C53.8701 3.77097 53.8051 3.70675 53.8051 3.61292V2.52134C53.8051 2.42749 53.8701 2.36328 53.9655 2.36328H55.0745Z" fill="#191E3B"/>
<path d="M55.0636 4.90723C55.1589 4.90723 55.224 4.97145 55.224 5.06531V11.5209C55.224 11.6147 55.1589 11.6789 55.0636 11.6789H53.9797C53.8844 11.6789 53.819 11.6147 53.819 11.5209V5.06531C53.819 4.97145 53.8844 4.90723 53.9797 4.90723H55.0636Z" fill="#191E3B"/>
</g>
</g>
<defs>
<clipPath id="clip0_60_114">
<rect width="64" height="14" fill="white"/>
</clipPath>
</defs>
</svg>
